<?xml version="1.0" encoding="us-ascii" standalone="no"?><svg xmlns="http://www.w3.org/2000/svg" xmlns:xlink="http://www.w3.org/1999/xlink" contentStyleType="text/css" height="549px" preserveAspectRatio="none" style="width:1338px;height:549px;background:#FFFFFF;" version="1.1" viewBox="0 0 1338 549" width="1338px" zoomAndPan="magnify"><defs/><g><text fill="#000000" font-family="sans-serif" font-size="14" font-weight="bold" lengthAdjust="spacing" textLength="324" x="508.5" y="27.9951">AI Content Detection Sequence Diagram</text><rect fill="#FFFFFF" height="310.1953" style="stroke:#181818;stroke-width:1.0;" width="10" x="559.5" y="149.7266"/><rect fill="#FFFFFF" height="272.0625" style="stroke:#181818;stroke-width:1.0;" width="10" x="564.5" y="178.8594"/><rect fill="#FFFFFF" height="87.3984" style="stroke:#181818;stroke-width:1.0;" width="10" x="971.5" y="250.125"/><rect fill="#FFFFFF" height="29.1328" style="stroke:#181818;stroke-width:1.0;" width="10" x="1249.5" y="279.2578"/><line style="stroke:#181818;stroke-width:0.5;stroke-dasharray:5.0,5.0;" x1="23" x2="23" y1="118.5938" y2="468.9219"/><line style="stroke:#181818;stroke-width:0.5;stroke-dasharray:5.0,5.0;" x1="564.5" x2="564.5" y1="118.5938" y2="468.9219"/><line style="stroke:#181818;stroke-width:0.5;stroke-dasharray:5.0,5.0;" x1="976.5" x2="976.5" y1="118.5938" y2="468.9219"/><line style="stroke:#181818;stroke-width:0.5;stroke-dasharray:5.0,5.0;" x1="1254" x2="1254" y1="118.5938" y2="468.9219"/><text fill="#000000" font-family="sans-serif" font-size="14" lengthAdjust="spacing" textLength="31" x="5" y="115.292">User</text><ellipse cx="23.5" cy="50.7969" fill="#E2E2F0" rx="8" ry="8" style="stroke:#181818;stroke-width:0.5;"/><path d="M23.5,58.7969 L23.5,85.7969 M10.5,66.7969 L36.5,66.7969 M23.5,85.7969 L10.5,100.7969 M23.5,85.7969 L36.5,100.7969 " fill="none" style="stroke:#181818;stroke-width:0.5;"/><text fill="#000000" font-family="sans-serif" font-size="14" lengthAdjust="spacing" textLength="31" x="5" y="480.917">User</text><ellipse cx="23.5" cy="492.7188" fill="#E2E2F0" rx="8" ry="8" style="stroke:#181818;stroke-width:0.5;"/><path d="M23.5,500.7188 L23.5,527.7188 M10.5,508.7188 L36.5,508.7188 M23.5,527.7188 L10.5,542.7188 M23.5,527.7188 L36.5,542.7188 " fill="none" style="stroke:#181818;stroke-width:0.5;"/><rect fill="#E2E2F0" height="30.2969" rx="2.5" ry="2.5" style="stroke:#181818;stroke-width:0.5;" width="134" x="497.5" y="87.2969"/><text fill="#000000" font-family="sans-serif" font-size="14" lengthAdjust="spacing" textLength="120" x="504.5" y="107.292">AIDetector Class</text><rect fill="#E2E2F0" height="30.2969" rx="2.5" ry="2.5" style="stroke:#181818;stroke-width:0.5;" width="134" x="497.5" y="467.9219"/><text fill="#000000" font-family="sans-serif" font-size="14" lengthAdjust="spacing" textLength="120" x="504.5" y="487.917">AIDetector Class</text><rect fill="#E2E2F0" height="30.2969" rx="2.5" ry="2.5" style="stroke:#181818;stroke-width:0.5;" width="166" x="893.5" y="87.2969"/><text fill="#000000" font-family="sans-serif" font-size="14" lengthAdjust="spacing" textLength="152" x="900.5" y="107.292">FalconDetector Class</text><rect fill="#E2E2F0" height="30.2969" rx="2.5" ry="2.5" style="stroke:#181818;stroke-width:0.5;" width="166" x="893.5" y="467.9219"/><text fill="#000000" font-family="sans-serif" font-size="14" lengthAdjust="spacing" textLength="152" x="900.5" y="487.917">FalconDetector Class</text><text fill="#000000" font-family="sans-serif" font-size="14" lengthAdjust="spacing" textLength="159" x="1172" y="115.292">Falcon 40B Fine Tuned</text><path d="M1236.5,66.2969 C1236.5,56.2969 1254.5,56.2969 1254.5,56.2969 C1254.5,56.2969 1272.5,56.2969 1272.5,66.2969 L1272.5,92.2969 C1272.5,102.2969 1254.5,102.2969 1254.5,102.2969 C1254.5,102.2969 1236.5,102.2969 1236.5,92.2969 L1236.5,66.2969 " fill="#E2E2F0" style="stroke:#181818;stroke-width:1.5;"/><path d="M1236.5,66.2969 C1236.5,76.2969 1254.5,76.2969 1254.5,76.2969 C1254.5,76.2969 1272.5,76.2969 1272.5,66.2969 " fill="none" style="stroke:#181818;stroke-width:1.5;"/><text fill="#000000" font-family="sans-serif" font-size="14" lengthAdjust="spacing" textLength="159" x="1172" y="480.917">Falcon 40B Fine Tuned</text><path d="M1236.5,494.2188 C1236.5,484.2188 1254.5,484.2188 1254.5,484.2188 C1254.5,484.2188 1272.5,484.2188 1272.5,494.2188 L1272.5,520.2188 C1272.5,530.2188 1254.5,530.2188 1254.5,530.2188 C1254.5,530.2188 1236.5,530.2188 1236.5,520.2188 L1236.5,494.2188 " fill="#E2E2F0" style="stroke:#181818;stroke-width:1.5;"/><path d="M1236.5,494.2188 C1236.5,504.2188 1254.5,504.2188 1254.5,504.2188 C1254.5,504.2188 1272.5,504.2188 1272.5,494.2188 " fill="none" style="stroke:#181818;stroke-width:1.5;"/><rect fill="#FFFFFF" height="310.1953" style="stroke:#181818;stroke-width:1.0;" width="10" x="559.5" y="149.7266"/><rect fill="#FFFFFF" height="272.0625" style="stroke:#181818;stroke-width:1.0;" width="10" x="564.5" y="178.8594"/><rect fill="#FFFFFF" height="87.3984" style="stroke:#181818;stroke-width:1.0;" width="10" x="971.5" y="250.125"/><rect fill="#FFFFFF" height="29.1328" style="stroke:#181818;stroke-width:1.0;" width="10" x="1249.5" y="279.2578"/><polygon fill="#181818" points="547.5,145.7266,557.5,149.7266,547.5,153.7266,551.5,149.7266" style="stroke:#181818;stroke-width:1.0;"/><line style="stroke:#181818;stroke-width:1.0;" x1="23.5" x2="553.5" y1="149.7266" y2="149.7266"/><text fill="#000000" font-family="sans-serif" font-size="13" lengthAdjust="spacing" textLength="173" x="30.5" y="144.6606">Initiate AIDetector instance</text><polygon fill="#181818" points="552.5,174.8594,562.5,178.8594,552.5,182.8594,556.5,178.8594" style="stroke:#181818;stroke-width:1.0;"/><line style="stroke:#181818;stroke-width:1.0;" x1="23.5" x2="558.5" y1="178.8594" y2="178.8594"/><text fill="#000000" font-family="sans-serif" font-size="13" lengthAdjust="spacing" textLength="104" x="30.5" y="173.7935">Call detect(text)</text><line style="stroke:#181818;stroke-width:1.0;" x1="574.5" x2="616.5" y1="207.9922" y2="207.9922"/><line style="stroke:#181818;stroke-width:1.0;" x1="616.5" x2="616.5" y1="207.9922" y2="220.9922"/><line style="stroke:#181818;stroke-width:1.0;" x1="575.5" x2="616.5" y1="220.9922" y2="220.9922"/><polygon fill="#181818" points="585.5,216.9922,575.5,220.9922,585.5,224.9922,581.5,220.9922" style="stroke:#181818;stroke-width:1.0;"/><text fill="#000000" font-family="sans-serif" font-size="13" lengthAdjust="spacing" textLength="180" x="581.5" y="202.9263">Split the text into sentences</text><polygon fill="#181818" points="959.5,246.125,969.5,250.125,959.5,254.125,963.5,250.125" style="stroke:#181818;stroke-width:1.0;"/><line style="stroke:#181818;stroke-width:1.0;" x1="574.5" x2="965.5" y1="250.125" y2="250.125"/><text fill="#000000" font-family="sans-serif" font-size="13" lengthAdjust="spacing" textLength="261" x="581.5" y="245.0591">For each sentence, call detect(sentence)</text><polygon fill="#181818" points="1237.5,275.2578,1247.5,279.2578,1237.5,283.2578,1241.5,279.2578" style="stroke:#181818;stroke-width:1.0;"/><line style="stroke:#181818;stroke-width:1.0;" x1="981.5" x2="1243.5" y1="279.2578" y2="279.2578"/><text fill="#000000" font-family="sans-serif" font-size="13" lengthAdjust="spacing" textLength="249" x="988.5" y="274.1919">Send request to Falcon 40B Fine Tuned</text><polygon fill="#181818" points="992.5,304.3906,982.5,308.3906,992.5,312.3906,988.5,308.3906" style="stroke:#181818;stroke-width:1.0;"/><line style="stroke:#181818;stroke-width:1.0;stroke-dasharray:2.0,2.0;" x1="986.5" x2="1253.5" y1="308.3906" y2="308.3906"/><text fill="#000000" font-family="sans-serif" font-size="13" lengthAdjust="spacing" textLength="228" x="998.5" y="303.3247">Return the AI-Generated Probability</text><polygon fill="#181818" points="585.5,333.5234,575.5,337.5234,585.5,341.5234,581.5,337.5234" style="stroke:#181818;stroke-width:1.0;"/><line style="stroke:#181818;stroke-width:1.0;stroke-dasharray:2.0,2.0;" x1="579.5" x2="975.5" y1="337.5234" y2="337.5234"/><text fill="#000000" font-family="sans-serif" font-size="13" lengthAdjust="spacing" textLength="228" x="591.5" y="332.4575">Return the AI-Generated Probability</text><line style="stroke:#181818;stroke-width:1.0;" x1="574.5" x2="616.5" y1="366.6563" y2="366.6563"/><line style="stroke:#181818;stroke-width:1.0;" x1="616.5" x2="616.5" y1="366.6563" y2="379.6563"/><line style="stroke:#181818;stroke-width:1.0;" x1="575.5" x2="616.5" y1="379.6563" y2="379.6563"/><polygon fill="#181818" points="585.5,375.6563,575.5,379.6563,585.5,383.6563,581.5,379.6563" style="stroke:#181818;stroke-width:1.0;"/><text fill="#000000" font-family="sans-serif" font-size="13" lengthAdjust="spacing" textLength="276" x="581.5" y="361.5903">Call human_or_ai(AI-Generated Probability)</text><line style="stroke:#181818;stroke-width:1.0;stroke-dasharray:2.0,2.0;" x1="574.5" x2="616.5" y1="408.7891" y2="408.7891"/><line style="stroke:#181818;stroke-width:1.0;stroke-dasharray:2.0,2.0;" x1="616.5" x2="616.5" y1="408.7891" y2="421.7891"/><line style="stroke:#181818;stroke-width:1.0;stroke-dasharray:2.0,2.0;" x1="575.5" x2="616.5" y1="421.7891" y2="421.7891"/><polygon fill="#181818" points="585.5,417.7891,575.5,421.7891,585.5,425.7891,581.5,421.7891" style="stroke:#181818;stroke-width:1.0;"/><text fill="#000000" font-family="sans-serif" font-size="13" lengthAdjust="spacing" textLength="383" x="581.5" y="403.7231">Return AI and Human probabilities and confidence message</text><polygon fill="#181818" points="34.5,446.9219,24.5,450.9219,34.5,454.9219,30.5,450.9219" style="stroke:#181818;stroke-width:1.0;"/><line style="stroke:#181818;stroke-width:1.0;stroke-dasharray:2.0,2.0;" x1="28.5" x2="558.5" y1="450.9219" y2="450.9219"/><text fill="#000000" font-family="sans-serif" font-size="13" lengthAdjust="spacing" textLength="512" x="40.5" y="445.856">Return dataframe with probabilities and confidence message for each sentence</text><!--SRC=[dPDFRy8m3CNl_HJMJY0DQOUTE4nY8BRUfh6TaKaDjLIIBd7tvzlFwKHfeoAXtLgxl-UNbrfOAe953ajdXQp0YeICiBEmeO-6h25OCHuy7hCCZJWFxu5yLgCNDboZ8ZUB_8_IvhB246u00voBmu_NM1bdHu1X8ojGS8U1JWJStpt2cYt1MsEfw27QoBBe2cOFlR5po2qBer2l26o3e9ug7eO_XyrHaILM5HJjwqJeMwQZP6z2mc_gYWMa98YqpXS7WMBOXaB23IEOmrhBXARiW5imFJkdQizI4c8ITZT28rDdP0lmyPQ36dGmcdCg7SFkdc0sOlgLfF6sFV4YdpsH9Qzu0I_UxN37ciPFLj15sRFP9CX_wLvnGUq5byqHxTRvBVBaalfq83BkJZS9DTNdA0TrnpA5jgwEzboqMtMa4F10gMRy1Jkrk0DxNJs2BvRoAZtOf_zCFvJpi5y0]--></g></svg>